<?xml version="1.0" encoding="utf-8"?>
<svg xmlns="http://www.w3.org/2000/svg" xmlns:xlink="http://www.w3.org/1999/xlink" version="1.1" style="width:0;height:0;position:absolute;overflow:hidden;">
  <defs>
<symbol viewBox="0 0 1024 1024" aria-labelledby="cnsi-ant-download-title" id="si-ant-download"><title id="cnsi-ant-download-title">Download files</title><path d="M338 641l181 181q10 10 23 10t23-10l181-181q9-9 9-22.5t-9-22.5q-10-9-23-9t-23 9L574 722V32q0-13-9.5-22.5T542 0t-22.5 9.5T510 32v690L384 596q-10-9-23-9t-23 9q-9 9-9 22.5t9 22.5zm622 95v192q0 13-9.5 22.5T928 960H96q-13 0-22.5-9.5T64 928V736q0-13-9.5-22.5T32 704t-22.5 9.5T0 736v224q0 26 19 45t45 19h896q26 0 45-19t19-45V736q0-13-9.5-22.5T992 704t-22.5 9.5T960 736z"/></symbol>
  </defs>
</svg>
