<?xml version="1.0" encoding="utf-8"?>
<svg xmlns="http://www.w3.org/2000/svg" xmlns:xlink="http://www.w3.org/1999/xlink" version="1.1" style="width:0;height:0;position:absolute;overflow:hidden;">
  <defs>
<symbol viewBox="0 0 1024 1024" aria-labelledby="fssi-ant-save-title" id="si-ant-save"><title id="fssi-ant-save-title">Save layout</title><path d="M1015 245L779 9q-9-9-22-9H64Q38 0 19 19T0 64v896q0 26 19 45t45 19h896q26 0 45-19t19-45V267q0-13-9-22zm-374 11H255V64h386v192zm319 704H64V64h127v192q0 26 19 45t45 19h386q26 0 45-19t19-45V64h39l216 216v680zM641 481q0 13-9.5 22.5T609 513H223q-13 0-22.5-9.5T191 481t9.5-22.5T223 449h386q13 0 22.5 9.5T641 481zm0 190q0 13-9.5 22.5T609 703H223q-13 0-22.5-9.5T191 671t9.5-22.5T223 639h386q13 0 22.5 9.5T641 671z"/></symbol>
  </defs>
</svg>
